<?xml version="1.0" standalone="no"?>
<!DOCTYPE svg PUBLIC "-//W3C//DTD SVG 20010904//EN"
 "http://www.w3.org/TR/2001/REC-SVG-20010904/DTD/svg10.dtd">
<svg version="1.0" xmlns="http://www.w3.org/2000/svg"
 width="256.000000pt" height="256.000000pt" viewBox="0 0 256.000000 256.000000"
 preserveAspectRatio="xMidYMid meet">

<g transform="translate(0.000000,256.000000) scale(0.100000,-0.100000)"
fill="#000000" stroke="none">
<path d="M265 2391 l-150 -89 -3 -107 -3 -107 362 -877 361 -878 220 -126
c121 -70 225 -127 231 -127 7 1 111 58 232 128 l219 127 358 875 358 875 -3
108 -2 109 -153 90 c-84 49 -159 88 -166 86 -7 -2 -128 -70 -269 -153 l-257
-150 0 -110 -1 -110 -158 -369 c-87 -202 -161 -364 -165 -358 -3 5 -76 173
-161 372 l-155 362 0 106 0 107 -257 150 c-141 83 -264 151 -272 152 -9 1 -83
-38 -166 -86z"/>
</g>
</svg>
